<?xml version="1.0" encoding="UTF-8"?>
<svg id="Capa_1" data-name="Capa 1" xmlns="http://www.w3.org/2000/svg" viewBox="0 0 273.64 106.53">
  <defs>
    <style>
      .cls-1 {
        fill: #2babe2;
      }

      .cls-2 {
        fill: #455564;
      }

      .cls-3 {
        fill: #008d39;
      }

      .cls-4 {
        fill: #f9b333;
      }

      .cls-5 {
        fill: #768287;
      }

      .cls-6 {
        fill: #e6342a;
      }
    </style>
  </defs>
  <g id="NO_TOCAR_·_plantilla" data-name="NO TOCAR · plantilla">
    <path class="cls-2" d="M.62,82.26v-12.87h1.74v12.87H.62Z"/>
    <path class="cls-2" d="M15.48,82.26l-1.53-8.27-2.81,8.45h-.44l-2.89-8.45-1.45,8.27h-1.71l2.41-12.87h.8l3.06,9.42,2.83-9.39h.79l2.61,12.87-1.67-.03Z"/>
    <path class="cls-2" d="M20.79,77.31v4.95h-1.76v-12.87c1.33-.06,2.13-.09,2.41-.09,3.73,0,5.6,1.25,5.6,3.75,0,2.9-1.65,4.34-5,4.34-.15,0-.59-.03-1.25-.08ZM20.79,70.97v4.75l1.17.09c2.18,0,3.27-.86,3.27-2.57s-1.16-2.36-3.49-2.36c-.32,0-.64.04-.95.09Z"/>
    <path class="cls-2" d="M29.53,69.39h1.76v8.81c-.06,1.43,1.04,2.64,2.47,2.7.09,0,.17,0,.26,0,.74.03,1.46-.24,2-.74.52-.53.79-1.26.75-2v-8.77h1.76v9c.06,1.15-.38,2.26-1.22,3.05-.93.77-2.12,1.16-3.32,1.09-1.21.08-2.4-.3-3.33-1.07-.81-.81-1.24-1.93-1.17-3.08l.04-8.99Z"/>
    <path class="cls-2" d="M41.67,82.26v-12.87h1.76v11.29h5.82v1.58h-7.58Z"/>
    <path class="cls-2" d="M50.68,81.67l.64-1.61c.75.51,1.63.8,2.54.84.6.03,1.19-.17,1.65-.56.41-.36.64-.88.62-1.43,0-.43-.11-.85-.34-1.21-.47-.55-1.07-.96-1.75-1.22l-1-.48c-.74-.3-1.38-.81-1.84-1.46-.36-.61-.54-1.3-.52-2-.03-.9.34-1.78,1-2.39.71-.67,1.65-1.03,2.62-1,1.05-.11,2.1.14,3,.69l-.52,1.53c-.33-.22-.69-.38-1.07-.49-.43-.15-.88-.23-1.34-.24-.52-.03-1.03.16-1.41.51-.34.35-.53.82-.51,1.31,0,.31.06.62.18.9.12.26.3.49.52.67.42.3.87.56,1.35.77l1,.5c1.54.55,2.52,2.06,2.38,3.69,0,.95-.42,1.86-1.16,2.46-.88.71-1.99,1.06-3.12,1-1.03.04-2.05-.23-2.92-.78Z"/>
    <path class="cls-2" d="M59.77,75.72c-.06-1.67.43-3.32,1.4-4.68.87-1.22,2.28-1.93,3.78-1.88,1.57-.1,3.09.54,4.11,1.73,1.03,1.39,1.53,3.1,1.43,4.83.11,1.78-.4,3.55-1.43,5-1.01,1.21-2.53,1.88-4.11,1.79-1.51.06-2.95-.66-3.81-1.9-.98-1.44-1.46-3.15-1.37-4.89ZM61.61,75.72c-.05,1.29.26,2.57.88,3.7.47.92,1.42,1.5,2.46,1.48,1.09.06,2.13-.46,2.75-1.36.69-1.15,1.02-2.48.94-3.82,0-3.33-1.23-5-3.69-5-1.01-.04-1.97.47-2.49,1.34-.62,1.12-.92,2.38-.85,3.66Z"/>
    <path class="cls-2" d="M81.46,82.26h-2.59v-12.87c1.65-.06,2.71-.09,3.17-.09,1.59-.08,3.14.52,4.27,1.64,1.09,1.18,1.66,2.75,1.58,4.36,0,4.64-2.14,6.96-6.43,6.96ZM80.63,70.97v9.62c.48.07.97.1,1.46.09,1.13.04,2.22-.47,2.9-1.38.76-1.13,1.13-2.49,1.05-3.85,0-3.05-1.37-4.58-4.1-4.57-.17,0-.58.03-1.31.09Z"/>
    <path class="cls-2" d="M92.13,70.97v3.58h4.23v1.49h-4.26v4.64h5.84v1.58h-7.58v-12.87h7.69v1.58h-5.92Z"/>
    <path class="cls-2" d="M106.36,82.26v-12.87h1.75v11.29h5.82v1.58h-7.57Z"/>
    <path class="cls-2" d="M123.27,82.26l-.89-2.71h-4.79l-.95,2.71h-2l5.22-13h.5l4.85,13h-1.94ZM120.05,72.59l-2,5.67h3.82l-1.82-5.67Z"/>
    <path class="cls-2" d="M126.46,81.67l.65-1.61c.37.26.78.47,1.22.6.42.15.87.23,1.32.24.6.03,1.19-.17,1.65-.56.41-.36.63-.89.62-1.43,0-.43-.12-.85-.35-1.21-.47-.55-1.07-.97-1.74-1.22l-1-.48c-.74-.3-1.38-.81-1.84-1.46-.36-.61-.54-1.3-.52-2-.03-.9.34-1.78,1-2.39.71-.67,1.65-1.03,2.62-1,1.05-.11,2.1.14,3,.69l-.52,1.53c-.33-.22-.69-.38-1.07-.49-.43-.15-.88-.23-1.34-.24-.52-.03-1.03.15-1.41.51-.34.35-.53.82-.51,1.31,0,.31.06.62.18.9.11.26.29.49.52.67.42.31.87.57,1.34.77l1.06.5c1.54.55,2.52,2.06,2.38,3.69,0,.95-.42,1.86-1.16,2.46-.88.71-1.99,1.06-3.12,1-1.05.05-2.09-.22-2.98-.78Z"/>
    <path class="cls-2" d="M142.06,82.26v-12.87h1.76v11.29h5.81v1.58h-7.57Z"/>
    <path class="cls-2" d="M153.36,70.97v3.58h4.25v1.49h-4.25v4.64h5.84v1.58h-7.6v-12.87h7.76v1.58h-6Z"/>
    <path class="cls-2" d="M170.07,82.44l-6.65-9.41v9.23h-1.67v-12.87h.71l6.47,8.9v-8.9h1.67v13l-.53.05Z"/>
    <path class="cls-2" d="M182.63,70.28l-.73,1.45c-.74-.6-1.65-.96-2.6-1-1.23-.06-2.41.47-3.19,1.42-.82,1.08-1.24,2.41-1.17,3.77-.06,1.3.34,2.58,1.14,3.6.78.91,1.93,1.41,3.13,1.36.84.04,1.66-.27,2.27-.84v-3h-1.78v-1.49h3.54v5.61c-.59.47-1.27.81-2,1-.79.23-1.61.36-2.44.36-1.6.08-3.16-.59-4.21-1.8-1.08-1.37-1.62-3.07-1.54-4.81-.08-1.77.53-3.5,1.69-4.84,1.18-1.26,2.85-1.94,4.57-1.86,1.2-.07,2.39.31,3.32,1.07Z"/>
    <path class="cls-2" d="M186.36,69.39h1.76v8.81c-.07,1.42,1.01,2.63,2.43,2.7.1,0,.19,0,.29,0,.74.03,1.46-.24,2-.74.52-.53.79-1.26.75-2v-8.77h1.77v9c.06,1.15-.38,2.26-1.21,3.05-.93.77-2.12,1.16-3.32,1.09-1.21.08-2.4-.3-3.33-1.07-.81-.81-1.24-1.93-1.17-3.08l.03-8.99Z"/>
    <path class="cls-2" d="M205.8,82.26l-.89-2.71h-4.79l-.95,2.71h-2l5.22-13h.47l4.85,13h-1.91ZM202.58,72.59l-2,5.67h3.82l-1.82-5.67Z"/>
    <path class="cls-2" d="M208.99,81.67l.64-1.61c.38.26.79.47,1.23.6.42.15.86.23,1.31.24.6.03,1.2-.17,1.66-.56.41-.36.63-.89.62-1.43,0-.43-.12-.85-.35-1.21-.47-.55-1.07-.97-1.74-1.22l-1-.48c-.74-.3-1.38-.81-1.84-1.46-.36-.61-.54-1.3-.52-2-.03-.9.34-1.78,1-2.39.71-.67,1.65-1.03,2.62-1,1.05-.11,2.1.14,3,.69l-.52,1.53c-.33-.21-.69-.38-1.07-.49-.43-.15-.88-.23-1.34-.24-.52-.03-1.03.15-1.41.51-.34.35-.53.82-.51,1.31,0,.31.06.62.18.9.11.26.29.49.51.67.42.3.87.56,1.35.77l1.06.5c1.54.55,2.52,2.06,2.38,3.69,0,.95-.42,1.86-1.16,2.46-.88.71-1.99,1.06-3.12,1-1.05.05-2.09-.22-2.98-.78Z"/>
    <path class="cls-2" d="M2.07,94.97v3.58h4.29v1.49H2.07v4.64h5.84v1.58H.36v-12.87h7.69v1.58H2.07Z"/>
    <path class="cls-2" d="M18.74,106.44l-6.65-9.41v9.23h-1.67v-12.87h.7l6.48,8.9v-8.9h1.67v13l-.53.05Z"/>
    <path class="cls-2" d="M28.27,106.26v-12.87h1.76v11.29h5.81v1.58h-7.57Z"/>
    <path class="cls-2" d="M45.16,106.26l-.88-2.71h-4.79l-.95,2.71h-2l5.23-13h.46l4.85,13h-1.92ZM41.95,96.59l-2,5.67h3.82l-1.82-5.67Z"/>
    <path class="cls-2" d="M54.14,106.26v-12.87h1.76v12.87h-1.76Z"/>
    <path class="cls-2" d="M67.63,106.44l-6.65-9.41v9.23h-1.62v-12.87h.7l6.48,8.9v-8.9h1.67v13l-.58.05Z"/>
    <path class="cls-2" d="M75.96,94.97v11.29h-1.76v-11.29h-4.09v-1.58h10.13v1.58h-4.28Z"/>
    <path class="cls-2" d="M83.94,94.97v3.58h4.26v1.49h-4.26v4.64h5.84v1.58h-7.6v-12.87h7.69v1.58h-5.93Z"/>
    <path class="cls-2" d="M92.29,106.26v-12.87h1.76v11.29h5.82v1.58h-7.58Z"/>
    <path class="cls-2" d="M102.18,106.26v-12.87h1.76v12.87h-1.76Z"/>
    <path class="cls-2" d="M116.28,94.28l-.73,1.45c-.74-.6-1.66-.96-2.61-1-1.23-.05-2.41.47-3.19,1.42-.82,1.08-1.24,2.41-1.17,3.77-.06,1.3.35,2.58,1.15,3.6.78.91,1.93,1.41,3.13,1.36.84.03,1.66-.27,2.27-.84v-3h-1.77v-1.49h3.54v5.61c-.59.47-1.27.81-2,1-.79.23-1.61.35-2.44.36-1.6.08-3.16-.59-4.21-1.8-1.08-1.36-1.63-3.07-1.54-4.81-.08-1.77.53-3.5,1.69-4.84,1.18-1.26,2.85-1.94,4.57-1.86,1.2-.07,2.38.31,3.31,1.07Z"/>
    <path class="cls-2" d="M121.75,94.97v3.58h4.26v1.49h-4.26v4.64h5.84v1.58h-7.6v-12.87h7.7v1.58h-5.94Z"/>
    <path class="cls-2" d="M138.43,106.44l-6.66-9.41v9.23h-1.67v-12.87h.71l6.48,8.9v-8.9h1.67v13l-.53.05Z"/>
    <path class="cls-2" d="M150.28,93.86l-.59,1.5c-.8-.47-1.73-.68-2.66-.61-1.08,0-2.08.55-2.67,1.46-.71,1.12-1.06,2.43-1,3.76-.07,1.27.28,2.52,1,3.56.62.88,1.64,1.39,2.71,1.37,1.08.06,2.13-.42,2.79-1.28l1,1.34c-1.04,1.03-2.47,1.58-3.93,1.52-1.55.07-3.04-.6-4-1.82-1.02-1.39-1.53-3.08-1.45-4.8-.06-1.73.49-3.42,1.55-4.79.96-1.23,2.44-1.94,4-1.9,1.12-.05,2.24.19,3.25.69Z"/>
    <path class="cls-2" d="M153.6,106.26v-12.87h1.76v12.87h-1.76Z"/>
    <path class="cls-2" d="M166.08,106.26l-.88-2.71h-4.79l-1,2.71h-2l5.23-13h.46l4.86,13h-1.88ZM162.87,96.59l-2,5.67h3.83l-1.83-5.67Z"/>
    <path class="cls-2" d="M181.07,106.26l-.88-2.71h-4.83l-.95,2.71h-2l5.23-13h.46l4.86,13h-1.89ZM177.86,96.59l-2,5.67h3.83l-1.83-5.67Z"/>
    <path class="cls-2" d="M191.99,106.26l-3.43-5.53c-.4,0-1,0-1.87-.08v5.61h-1.75v-12.87l1.36-.07c.85,0,1.47-.06,1.85-.06,3.1,0,4.64,1.23,4.64,3.69,0,.79-.26,1.56-.74,2.18-.43.6-1.06,1.03-1.78,1.21l3.74,5.92h-2.02ZM186.69,94.97v4.18c.41.06.82.09,1.23.09.8.06,1.61-.12,2.31-.51.53-.45.8-1.13.72-1.82.05-.62-.25-1.22-.78-1.55-.76-.37-1.6-.54-2.44-.48-.18,0-.52.03-1.04.09h0Z"/>
    <path class="cls-2" d="M199.75,94.97v11.29h-1.76v-11.29h-4.1v-1.58h10.14v1.58h-4.28Z"/>
    <path class="cls-2" d="M206.28,106.26v-12.87h1.76v12.87h-1.76Z"/>
    <path class="cls-2" d="M213.21,94.97v3.58h4.52v1.49h-4.52v6.22h-1.76v-12.87h8v1.58h-6.24Z"/>
    <path class="cls-2" d="M221.67,106.26v-12.87h1.76v12.87h-1.76Z"/>
    <path class="cls-2" d="M235.06,93.86l-.59,1.5c-.8-.47-1.73-.68-2.65-.61-1.1-.02-2.13.54-2.72,1.46-.72,1.12-1.07,2.43-1,3.76-.06,1.27.31,2.53,1.06,3.56.62.88,1.63,1.39,2.71,1.37,1.08.05,2.12-.42,2.78-1.28l1,1.34c-1.05,1.03-2.47,1.58-3.94,1.52-1.55.08-3.04-.6-4-1.82-1.02-1.38-1.54-3.08-1.45-4.8-.07-1.73.48-3.43,1.55-4.79.95-1.23,2.44-1.94,4-1.9,1.12-.05,2.24.19,3.25.69Z"/>
    <path class="cls-2" d="M238.36,106.26v-12.87h1.76v12.87h-1.76Z"/>
    <path class="cls-2" d="M250.87,106.26l-.89-2.71h-4.79l-.95,2.71h-2l5.23-13h.47l4.85,13h-1.92ZM247.65,96.59l-2,5.67h3.82l-1.82-5.67Z"/>
    <path class="cls-2" d="M254.64,106.26v-12.87h1.72v11.29h5.82v1.58h-7.54Z"/>
    <path class="cls-2" d="M0,1.62h10.25v45.79H0V1.62Z"/>
    <path class="cls-5" d="M186.51,1.62h-11.36l-15.44,34.83V1.62h-10.53v45.79h17.18l3.55-8.6h21.54l3.57,8.62h11.78L186.51,1.62ZM173.3,30.68l6.37-15.25c.24-.58.41-1.16.65-1.75s.24-1,.42-1.62c.06.62.18,1.23.36,1.82.18.62.42,1.23.71,1.81l6.25,15h-14.76Z"/>
    <path class="cls-2" d="M18.95,1.61h9.5v37.64h23v8.2H18.95V1.61Z"/>
    <path class="cls-2" d="M93.18,39.32v8.13h-34.38V1.61h33.47v8.13h-24.91v10.92h22.13v7h-22.13v11.66h25.82Z"/>
    <path class="cls-2" d="M141.99,1.61v45.84h-7l-25.27-31v31h-8.46V1.61h7l25.27,31V1.61h8.46Z"/>
    <path class="cls-5" d="M246.92,19.81h-.06c-1.5-.05-2.75,1.12-2.8,2.61,0,.09,0,.17,0,.26,0,1.54,1.26,2.79,2.8,2.78.03,0,.06,0,.09,0h0c.76-.02,1.48-.34,2-.89.53-.53.82-1.25.8-2-.04-1.54-1.29-2.76-2.83-2.76Z"/>
    <path class="cls-5" d="M252.67,13.81h-.06c-1.5-.05-2.76,1.13-2.8,2.63,0,.08,0,.16,0,.24,0,1.53,1.23,2.78,2.76,2.78.04,0,.09,0,.13,0h0c.76-.02,1.48-.34,2-.89.53-.53.81-1.25.8-2-.04-1.53-1.3-2.76-2.83-2.76Z"/>
    <path class="cls-1" d="M258.83,8.35h-.06c-1.49-.05-2.74,1.11-2.79,2.6,0,.09,0,.18,0,.27,0,1.52,1.22,2.77,2.75,2.77.04,0,.09,0,.13,0h0c.76-.02,1.48-.34,2-.89.52-.53.81-1.25.79-2-.04-1.53-1.29-2.75-2.82-2.75Z"/>
    <path class="cls-5" d="M252.46,25.69h-.1c-1.49-.05-2.74,1.11-2.79,2.6,0,.09,0,.18,0,.27,0,1.52,1.22,2.77,2.75,2.77.04,0,.09,0,.13,0h0c.76-.02,1.48-.34,2-.89.52-.53.81-1.25.79-2-.04-1.51-1.27-2.72-2.78-2.75Z"/>
    <path class="cls-3" d="M258.36,31.21h0c-1.5-.05-2.75,1.12-2.8,2.61,0,.09,0,.17,0,.26.02,1.52,1.27,2.75,2.79,2.73,0,0,0,0,.01,0h0c.76-.02,1.48-.34,2-.89.53-.53.82-1.25.8-2-.07-1.5-1.3-2.69-2.8-2.71Z"/>
    <path class="cls-3" d="M264.59,36.26h-.06c-1.49-.05-2.74,1.11-2.79,2.6,0,.09,0,.18,0,.27,0,1.52,1.22,2.77,2.75,2.77.04,0,.09,0,.13,0h0c.76-.01,1.48-.33,2-.88.53-.53.82-1.25.8-2-.04-1.54-1.29-2.76-2.83-2.76Z"/>
    <path class="cls-6" d="M270.54,28.71h-.06c-1.49-.05-2.74,1.11-2.79,2.6,0,.09,0,.18,0,.27,0,1.52,1.22,2.77,2.75,2.77.04,0,.09,0,.13,0h0c.76-.01,1.48-.34,2-.89.53-.53.82-1.25.8-2-.04-1.53-1.3-2.75-2.83-2.75Z"/>
    <path class="cls-6" d="M263.21,23.44h-.07c-1.5-.04-2.74,1.14-2.78,2.63,0,.08,0,.16,0,.24,0,1.53,1.23,2.78,2.76,2.78.04,0,.08,0,.12,0h0c.76-.02,1.48-.34,2-.89.52-.53.81-1.25.8-2-.04-1.53-1.3-2.76-2.83-2.76Z"/>
    <path class="cls-1" d="M264.91,2.81h-.06c-1.5-.05-2.76,1.13-2.8,2.63,0,.08,0,.16,0,.24,0,1.53,1.23,2.78,2.76,2.78.04,0,.09,0,.13,0h0c.76-.02,1.48-.34,2-.89.53-.53.82-1.25.8-2-.04-1.54-1.29-2.76-2.83-2.76Z"/>
    <path class="cls-4" d="M270.81,11.12h-.06c-1.5-.05-2.75,1.12-2.8,2.61,0,.09,0,.17,0,.26-.03,1.53,1.19,2.79,2.72,2.82.06,0,.12,0,.17,0h0c.76-.02,1.48-.34,2-.89.53-.53.82-1.25.8-2-.02-1.55-1.28-2.8-2.83-2.8Z"/>
    <path class="cls-4" d="M263.69,15.54h-.06c-1.49-.05-2.74,1.11-2.79,2.6,0,.09,0,.18,0,.27,0,1.52,1.22,2.77,2.75,2.77.04,0,.09,0,.13,0h0c.76-.02,1.48-.34,2-.89.52-.53.81-1.25.8-2-.05-1.53-1.3-2.75-2.83-2.75Z"/>
    <path class="cls-5" d="M252.65,38.13c-.81,0-1.58.37-2.09,1l-23,.14c-.24,0-.49.05-.71.15l-9.29,4.16c-.37-.19-.78-.28-1.19-.28-1.51,0-2.73,1.22-2.74,2.72,0,1.51,1.22,2.73,2.72,2.74,1.21,0,2.28-.79,2.62-1.95l9-4,22.62-.13c.97,1.15,2.69,1.3,3.85.33,1.15-.97,1.3-2.69.33-3.85-.52-.62-1.29-.97-2.09-.97l-.03-.06Z"/>
    <path class="cls-5" d="M253.48,0c-.81,0-1.57.37-2.08,1h-32.42c-.97,0-1.75.78-1.75,1.75v28.8c-1.16.97-1.31,2.69-.35,3.85.97,1.16,2.69,1.31,3.85.35.63-.52.98-1.3.98-2.11,0-.81-.37-1.57-1-2.08V4.48h30.65c.97,1.16,2.69,1.31,3.85.35s1.31-2.69.35-3.85C255.03.35,254.25,0,253.44,0h.04Z"/>
  </g>
</svg>